<svg width="30" height="31" viewBox="0 0 30 31" fill="none" xmlns="http://www.w3.org/2000/svg">
<path d="M27.1787 15.7991L15.9287 2.98657C15.455 2.44588 14.545 2.44588 14.0712 2.98657L2.82123 15.7991C2.6593 15.9831 2.55301 16.2113 2.51529 16.456C2.47756 16.7008 2.51002 16.9515 2.60873 17.1777C2.80873 17.6402 3.25623 17.9375 3.74998 17.9375H6.24998V26.9062C6.24998 27.246 6.38168 27.5719 6.6161 27.8122C6.85052 28.0525 7.16846 28.1875 7.49998 28.1875H11.25C11.5815 28.1875 11.8994 28.0525 12.1339 27.8122C12.3683 27.5719 12.5 27.246 12.5 26.9062V21.7812H17.5V26.9062C17.5 27.246 17.6317 27.5719 17.8661 27.8122C18.1005 28.0525 18.4185 28.1875 18.75 28.1875H22.5C22.8315 28.1875 23.1494 28.0525 23.3839 27.8122C23.6183 27.5719 23.75 27.246 23.75 26.9062V17.9375H26.25C26.4921 17.9385 26.7292 17.8674 26.9325 17.7327C27.1358 17.598 27.2965 17.4055 27.395 17.1788C27.4934 16.9521 27.5254 16.701 27.487 16.456C27.4486 16.211 27.3415 15.9827 27.1787 15.7991Z" fill="#BDBDBD"/>
</svg>
