<svg width="30" height="30" viewBox="0 0 30 30" fill="none" xmlns="http://www.w3.org/2000/svg">
<path d="M15 21.25L16.25 18.75V12.3225C18.4012 11.7637 20 9.8225 20 7.5C20 4.7425 17.7575 2.5 15 2.5C12.2425 2.5 10 4.7425 10 7.5C10 9.8225 11.5988 11.7637 13.75 12.3225V18.75L15 21.25Z" fill="#BDBDBD"/>
<path d="M20.3338 13.2036L19.6675 15.6136C22.9063 16.5086 25 18.2299 25 19.9999C25 22.3649 20.8938 24.9999 15 24.9999C9.10625 24.9999 5 22.3649 5 19.9999C5 18.2299 7.09375 16.5086 10.3338 15.6124L9.6675 13.2024C5.24625 14.4249 2.5 17.0286 2.5 19.9999C2.5 24.2049 7.99125 27.4999 15 27.4999C22.0088 27.4999 27.5 24.2049 27.5 19.9999C27.5 17.0286 24.7538 14.4249 20.3338 13.2036Z" fill="#BDBDBD"/>
</svg>
